ISO-10303-21;
HEADER;
/* Generated by software containing ST-Developer
 * from STEP Tools, Inc. (www.steptools.com) 
 */

FILE_DESCRIPTION(
/* description */ (''),
/* implementation_level */ '2;1');

FILE_NAME(
/* name */ 'Bottom part.step',
/* time_stamp */ '2026-02-17T16:22:09-05:00',
/* author */ ('seths'),
/* organization */ (''),
/* preprocessor_version */ 'ST-DEVELOPER v20',
/* originating_system */ 'Autodesk Inventor 2025',
/* authorisation */ '');

FILE_SCHEMA (('AUTOMOTIVE_DESIGN { 1 0 10303 214 3 1 1 }','MODEL_BASED_INTEGRATED_MANUFACTURING_SCHEMA'));
ENDSEC;

DATA;
#10=MECHANICAL_DESIGN_GEOMETRIC_PRESENTATION_REPRESENTATION('',(#13),#1274);
#11=SHAPE_REPRESENTATION_RELATIONSHIP('SRR','None',#1281,#12);
#12=ADVANCED_BREP_SHAPE_REPRESENTATION('',(#14),#1273);
#13=STYLED_ITEM('',(#1290),#14);
#14=MANIFOLD_SOLID_BREP('Solid1',#725);
#15=FACE_BOUND('',#244,.T.);
#16=FACE_BOUND('',#251,.T.);
#17=FACE_BOUND('',#256,.T.);
#18=FACE_BOUND('',#261,.T.);
#19=FACE_BOUND('',#266,.T.);
#20=PLANE('',#776);
#21=PLANE('',#777);
#22=PLANE('',#778);
#23=PLANE('',#779);
#24=PLANE('',#789);
#25=PLANE('',#799);
#26=PLANE('',#809);
#27=PLANE('',#819);
#28=PLANE('',#820);
#29=PLANE('',#821);
#30=PLANE('',#822);
#31=PLANE('',#823);
#32=PLANE('',#824);
#33=PLANE('',#825);
#34=PLANE('',#826);
#35=PLANE('',#827);
#36=PLANE('',#828);
#37=PLANE('',#829);
#38=PLANE('',#830);
#39=PLANE('',#831);
#40=PLANE('',#832);
#41=PLANE('',#833);
#42=PLANE('',#834);
#43=LINE('',#1094,#103);
#44=LINE('',#1095,#104);
#45=LINE('',#1104,#105);
#46=LINE('',#1105,#106);
#47=LINE('',#1110,#107);
#48=LINE('',#1111,#108);
#49=LINE('',#1113,#109);
#50=LINE('',#1114,#110);
#51=LINE('',#1119,#111);
#52=LINE('',#1120,#112);
#53=LINE('',#1122,#113);
#54=LINE('',#1123,#114);
#55=LINE('',#1128,#115);
#56=LINE('',#1129,#116);
#57=LINE('',#1134,#117);
#58=LINE('',#1135,#118);
#59=LINE('',#1137,#119);
#60=LINE('',#1139,#120);
#61=LINE('',#1140,#121);
#62=LINE('',#1141,#122);
#63=LINE('',#1144,#123);
#64=LINE('',#1146,#124);
#65=LINE('',#1148,#125);
#66=LINE('',#1149,#126);
#67=LINE('',#1155,#127);
#68=LINE('',#1159,#128);
#69=LINE('',#1168,#129);
#70=LINE('',#1174,#130);
#71=LINE('',#1178,#131);
#72=LINE('',#1187,#132);
#73=LINE('',#1193,#133);
#74=LINE('',#1197,#134);
#75=LINE('',#1206,#135);
#76=LINE('',#1212,#136);
#77=LINE('',#1216,#137);
#78=LINE('',#1225,#138);
#79=LINE('',#1230,#139);
#80=LINE('',#1231,#140);
#81=LINE('',#1235,#141);
#82=LINE('',#1236,#142);
#83=LINE('',#1240,#143);
#84=LINE('',#1241,#144);
#85=LINE('',#1244,#145);
#86=LINE('',#1245,#146);
#87=LINE('',#1246,#147);
#88=LINE('',#1247,#148);
#89=LINE('',#1250,#149);
#90=LINE('',#1251,#150);
#91=LINE('',#1254,#151);
#92=LINE('',#1255,#152);
#93=LINE('',#1256,#153);
#94=LINE('',#1257,#154);
#95=LINE('',#1259,#155);
#96=LINE('',#1260,#156);
#97=LINE('',#1261,#157);
#98=LINE('',#1263,#158);
#99=LINE('',#1264,#159);
#100=LINE('',#1265,#160);
#101=LINE('',#1267,#161);
#102=LINE('',#1268,#162);
#103=VECTOR('',#863,10.);
#104=VECTOR('',#864,10.);
#105=VECTOR('',#875,10.);
#106=VECTOR('',#876,10.);
#107=VECTOR('',#881,10.);
#108=VECTOR('',#882,10.);
#109=VECTOR('',#885,10.);
#110=VECTOR('',#886,10.);
#111=VECTOR('',#891,10.);
#112=VECTOR('',#892,10.);
#113=VECTOR('',#895,10.);
#114=VECTOR('',#896,10.);
#115=VECTOR('',#901,10.);
#116=VECTOR('',#902,10.);
#117=VECTOR('',#907,10.);
#118=VECTOR('',#908,10.);
#119=VECTOR('',#911,10.);
#120=VECTOR('',#914,10.);
#121=VECTOR('',#915,10.);
#122=VECTOR('',#916,10.);
#123=VECTOR('',#917,10.);
#124=VECTOR('',#918,10.);
#125=VECTOR('',#919,10.);
#126=VECTOR('',#920,10.);
#127=VECTOR('',#927,10.);
#128=VECTOR('',#930,10.);
#129=VECTOR('',#943,0.75);
#130=VECTOR('',#950,10.);
#131=VECTOR('',#953,10.);
#132=VECTOR('',#966,0.75);
#133=VECTOR('',#973,10.);
#134=VECTOR('',#976,10.);
#135=VECTOR('',#989,0.75);
#136=VECTOR('',#996,10.);
#137=VECTOR('',#999,10.);
#138=VECTOR('',#1012,0.75);
#139=VECTOR('',#1019,10.);
#140=VECTOR('',#1020,10.);
#141=VECTOR('',#1025,10.);
#142=VECTOR('',#1026,10.);
#143=VECTOR('',#1031,10.);
#144=VECTOR('',#1032,10.);
#145=VECTOR('',#1037,10.);
#146=VECTOR('',#1038,10.);
#147=VECTOR('',#1039,10.);
#148=VECTOR('',#1040,10.);
#149=VECTOR('',#1043,10.);
#150=VECTOR('',#1044,10.);
#151=VECTOR('',#1049,10.);
#152=VECTOR('',#1050,10.);
#153=VECTOR('',#1051,10.);
#154=VECTOR('',#1052,10.);
#155=VECTOR('',#1055,10.);
#156=VECTOR('',#1056,10.);
#157=VECTOR('',#1057,10.);
#158=VECTOR('',#1060,10.);
#159=VECTOR('',#1061,10.);
#160=VECTOR('',#1062,10.);
#161=VECTOR('',#1065,10.);
#162=VECTOR('',#1066,10.);
#163=CYLINDRICAL_SURFACE('',#760,1.);
#164=CYLINDRICAL_SURFACE('',#765,1.);
#165=CYLINDRICAL_SURFACE('',#766,1.);
#166=CYLINDRICAL_SURFACE('',#768,1.);
#167=CYLINDRICAL_SURFACE('',#769,1.);
#168=CYLINDRICAL_SURFACE('',#771,1.);
#169=CYLINDRICAL_SURFACE('',#772,1.);
#170=CYLINDRICAL_SURFACE('',#774,1.);
#171=CYLINDRICAL_SURFACE('',#780,1.293);
#172=CYLINDRICAL_SURFACE('',#783,1.293);
#173=CYLINDRICAL_SURFACE('',#786,0.75);
#174=CYLINDRICAL_SURFACE('',#790,1.293);
#175=CYLINDRICAL_SURFACE('',#793,1.293);
#176=CYLINDRICAL_SURFACE('',#796,0.75);
#177=CYLINDRICAL_SURFACE('',#800,1.29300000000001);
#178=CYLINDRICAL_SURFACE('',#803,1.29300000000001);
#179=CYLINDRICAL_SURFACE('',#806,0.75);
#180=CYLINDRICAL_SURFACE('',#810,1.293);
#181=CYLINDRICAL_SURFACE('',#813,1.293);
#182=CYLINDRICAL_SURFACE('',#816,0.75);
#183=FACE_OUTER_BOUND('',#230,.T.);
#184=FACE_OUTER_BOUND('',#231,.T.);
#185=FACE_OUTER_BOUND('',#232,.T.);
#186=FACE_OUTER_BOUND('',#233,.T.);
#187=FACE_OUTER_BOUND('',#234,.T.);
#188=FACE_OUTER_BOUND('',#235,.T.);
#189=FACE_OUTER_BOUND('',#236,.T.);
#190=FACE_OUTER_BOUND('',#237,.T.);
#191=FACE_OUTER_BOUND('',#238,.T.);
#192=FACE_OUTER_BOUND('',#239,.T.);
#193=FACE_OUTER_BOUND('',#240,.T.);
#194=FACE_OUTER_BOUND('',#241,.T.);
#195=FACE_OUTER_BOUND('',#242,.T.);
#196=FACE_OUTER_BOUND('',#243,.T.);
#197=FACE_OUTER_BOUND('',#245,.T.);
#198=FACE_OUTER_BOUND('',#246,.T.);
#199=FACE_OUTER_BOUND('',#247,.T.);
#200=FACE_OUTER_BOUND('',#248,.T.);
#201=FACE_OUTER_BOUND('',#249,.T.);
#202=FACE_OUTER_BOUND('',#250,.T.);
#203=FACE_OUTER_BOUND('',#252,.T.);
#204=FACE_OUTER_BOUND('',#253,.T.);
#205=FACE_OUTER_BOUND('',#254,.T.);
#206=FACE_OUTER_BOUND('',#255,.T.);
#207=FACE_OUTER_BOUND('',#257,.T.);
#208=FACE_OUTER_BOUND('',#258,.T.);
#209=FACE_OUTER_BOUND('',#259,.T.);
#210=FACE_OUTER_BOUND('',#260,.T.);
#211=FACE_OUTER_BOUND('',#262,.T.);
#212=FACE_OUTER_BOUND('',#263,.T.);
#213=FACE_OUTER_BOUND('',#264,.T.);
#214=FACE_OUTER_BOUND('',#265,.T.);
#215=FACE_OUTER_BOUND('',#267,.T.);
#216=FACE_OUTER_BOUND('',#268,.T.);
#217=FACE_OUTER_BOUND('',#269,.T.);
#218=FACE_OUTER_BOUND('',#270,.T.);
#219=FACE_OUTER_BOUND('',#271,.T.);
#220=FACE_OUTER_BOUND('',#272,.T.);
#221=FACE_OUTER_BOUND('',#273,.T.);
#222=FACE_OUTER_BOUND('',#274,.T.);
#223=FACE_OUTER_BOUND('',#275,.T.);
#224=FACE_OUTER_BOUND('',#276,.T.);
#225=FACE_OUTER_BOUND('',#277,.T.);
#226=FACE_OUTER_BOUND('',#278,.T.);
#227=FACE_OUTER_BOUND('',#279,.T.);
#228=FACE_OUTER_BOUND('',#280,.T.);
#229=FACE_OUTER_BOUND('',#281,.T.);
#230=EDGE_LOOP('',(#474,#475,#476));
#231=EDGE_LOOP('',(#477,#478,#479));
#232=EDGE_LOOP('',(#480,#481,#482));
#233=EDGE_LOOP('',(#483,#484,#485,#486));
#234=EDGE_LOOP('',(#487,#488,#489));
#235=EDGE_LOOP('',(#490,#491,#492,#493));
#236=EDGE_LOOP('',(#494,#495,#496,#497));
#237=EDGE_LOOP('',(#498,#499,#500,#501));
#238=EDGE_LOOP('',(#502,#503,#504,#505));
#239=EDGE_LOOP('',(#506,#507,#508,#509));
#240=EDGE_LOOP('',(#510,#511,#512,#513));
#241=EDGE_LOOP('',(#514,#515,#516,#517));
#242=EDGE_LOOP('',(#518,#519,#520,#521));
#243=EDGE_LOOP('',(#522,#523,#524,#525,#526,#527,#528,#529));
#244=EDGE_LOOP('',(#530,#531,#532,#533));
#245=EDGE_LOOP('',(#534,#535,#536,#537));
#246=EDGE_LOOP('',(#538,#539,#540,#541));
#247=EDGE_LOOP('',(#542,#543,#544,#545));
#248=EDGE_LOOP('',(#546,#547,#548,#549));
#249=EDGE_LOOP('',(#550,#551,#552,#553));
#250=EDGE_LOOP('',(#554,#555));
#251=EDGE_LOOP('',(#556));
#252=EDGE_LOOP('',(#557,#558,#559,#560));
#253=EDGE_LOOP('',(#561,#562,#563,#564));
#254=EDGE_LOOP('',(#565,#566,#567,#568));
#255=EDGE_LOOP('',(#569,#570));
#256=EDGE_LOOP('',(#571));
#257=EDGE_LOOP('',(#572,#573,#574,#575));
#258=EDGE_LOOP('',(#576,#577,#578,#579));
#259=EDGE_LOOP('',(#580,#581,#582,#583));
#260=EDGE_LOOP('',(#584,#585));
#261=EDGE_LOOP('',(#586));
#262=EDGE_LOOP('',(#587,#588,#589,#590));
#263=EDGE_LOOP('',(#591,#592,#593,#594));
#264=EDGE_LOOP('',(#595,#596,#597,#598));
#265=EDGE_LOOP('',(#599,#600));
#266=EDGE_LOOP('',(#601));
#267=EDGE_LOOP('',(#602,#603,#604));
#268=EDGE_LOOP('',(#605));
#269=EDGE_LOOP('',(#606,#607,#608));
#270=EDGE_LOOP('',(#609));
#271=EDGE_LOOP('',(#610,#611,#612));
#272=EDGE_LOOP('',(#613));
#273=EDGE_LOOP('',(#614,#615,#616,#617,#618,#619,#620,#621));
#274=EDGE_LOOP('',(#622,#623,#624));
#275=EDGE_LOOP('',(#625));
#276=EDGE_LOOP('',(#626,#627,#628,#629,#630,#631,#632,#633,#634,#635));
#277=EDGE_LOOP('',(#636,#637,#638,#639,#640,#641,#642,#643,#644,#645));
#278=EDGE_LOOP('',(#646,#647,#648,#649,#650,#651,#652,#653,#654,#655));
#279=EDGE_LOOP('',(#656,#657,#658,#659,#660,#661,#662,#663,#664,#665));
#280=EDGE_LOOP('',(#666,#667,#668,#669));
#281=EDGE_LOOP('',(#670,#671,#672,#673));
#282=CIRCLE('',#749,0.999999999999996);
#283=CIRCLE('',#750,1.);
#284=CIRCLE('',#751,1.);
#285=CIRCLE('',#753,1.);
#286=CIRCLE('',#754,1.);
#287=CIRCLE('',#755,0.999999999999996);
#288=CIRCLE('',#757,1.);
#289=CIRCLE('',#758,1.);
#290=CIRCLE('',#759,1.);
#291=CIRCLE('',#762,1.);
#292=CIRCLE('',#763,1.);
#293=CIRCLE('',#764,1.);
#294=CIRCLE('',#767,1.);
#295=CIRCLE('',#770,1.);
#296=CIRCLE('',#773,1.);
#297=CIRCLE('',#775,1.);
#298=CIRCLE('',#781,1.293);
#299=CIRCLE('',#782,1.293);
#300=CIRCLE('',#784,1.293);
#301=CIRCLE('',#785,1.293);
#302=CIRCLE('',#787,0.75);
#303=CIRCLE('',#788,0.75);
#304=CIRCLE('',#791,1.293);
#305=CIRCLE('',#792,1.293);
#306=CIRCLE('',#794,1.293);
#307=CIRCLE('',#795,1.293);
#308=CIRCLE('',#797,0.75);
#309=CIRCLE('',#798,0.75);
#310=CIRCLE('',#801,1.29300000000001);
#311=CIRCLE('',#802,1.29300000000001);
#312=CIRCLE('',#804,1.29300000000001);
#313=CIRCLE('',#805,1.29300000000001);
#314=CIRCLE('',#807,0.75);
#315=CIRCLE('',#808,0.75);
#316=CIRCLE('',#811,1.293);
#317=CIRCLE('',#812,1.293);
#318=CIRCLE('',#814,1.293);
#319=CIRCLE('',#815,1.293);
#320=CIRCLE('',#817,0.75);
#321=CIRCLE('',#818,0.75);
#322=VERTEX_POINT('',#1073);
#323=VERTEX_POINT('',#1074);
#324=VERTEX_POINT('',#1076);
#325=VERTEX_POINT('',#1080);
#326=VERTEX_POINT('',#1081);
#327=VERTEX_POINT('',#1083);
#328=VERTEX_POINT('',#1087);
#329=VERTEX_POINT('',#1088);
#330=VERTEX_POINT('',#1090);
#331=VERTEX_POINT('',#1097);
#332=VERTEX_POINT('',#1098);
#333=VERTEX_POINT('',#1100);
#334=VERTEX_POINT('',#1107);
#335=VERTEX_POINT('',#1108);
#336=VERTEX_POINT('',#1116);
#337=VERTEX_POINT('',#1117);
#338=VERTEX_POINT('',#1125);
#339=VERTEX_POINT('',#1126);
#340=VERTEX_POINT('',#1131);
#341=VERTEX_POINT('',#1132);
#342=VERTEX_POINT('',#1142);
#343=VERTEX_POINT('',#1143);
#344=VERTEX_POINT('',#1145);
#345=VERTEX_POINT('',#1147);
#346=VERTEX_POINT('',#1153);
#347=VERTEX_POINT('',#1154);
#348=VERTEX_POINT('',#1156);
#349=VERTEX_POINT('',#1158);
#350=VERTEX_POINT('',#1165);
#351=VERTEX_POINT('',#1167);
#352=VERTEX_POINT('',#1172);
#353=VERTEX_POINT('',#1173);
#354=VERTEX_POINT('',#1175);
#355=VERTEX_POINT('',#1177);
#356=VERTEX_POINT('',#1184);
#357=VERTEX_POINT('',#1186);
#358=VERTEX_POINT('',#1191);
#359=VERTEX_POINT('',#1192);
#360=VERTEX_POINT('',#1194);
#361=VERTEX_POINT('',#1196);
#362=VERTEX_POINT('',#1203);
#363=VERTEX_POINT('',#1205);
#364=VERTEX_POINT('',#1210);
#365=VERTEX_POINT('',#1211);
#366=VERTEX_POINT('',#1213);
#367=VERTEX_POINT('',#1215);
#368=VERTEX_POINT('',#1222);
#369=VERTEX_POINT('',#1224);
#370=VERTEX_POINT('',#1229);
#371=VERTEX_POINT('',#1234);
#372=VERTEX_POINT('',#1239);
#373=VERTEX_POINT('',#1249);
#374=EDGE_CURVE('',#322,#323,#282,.F.);
#375=EDGE_CURVE('',#324,#322,#283,.F.);
#376=EDGE_CURVE('',#323,#324,#284,.F.);
#377=EDGE_CURVE('',#325,#326,#285,.F.);
#378=EDGE_CURVE('',#327,#325,#286,.F.);
#379=EDGE_CURVE('',#326,#327,#287,.F.);
#380=EDGE_CURVE('',#328,#329,#288,.F.);
#381=EDGE_CURVE('',#330,#328,#289,.F.);
#382=EDGE_CURVE('',#329,#330,#290,.F.);
#383=EDGE_CURVE('',#328,#323,#43,.T.);
#384=EDGE_CURVE('',#324,#330,#44,.T.);
#385=EDGE_CURVE('',#331,#332,#291,.F.);
#386=EDGE_CURVE('',#333,#331,#292,.F.);
#387=EDGE_CURVE('',#332,#333,#293,.F.);
#388=EDGE_CURVE('',#325,#333,#45,.T.);
#389=EDGE_CURVE('',#331,#327,#46,.T.);
#390=EDGE_CURVE('',#334,#335,#294,.T.);
#391=EDGE_CURVE('',#335,#332,#47,.T.);
#392=EDGE_CURVE('',#333,#334,#48,.T.);
#393=EDGE_CURVE('',#332,#329,#49,.T.);
#394=EDGE_CURVE('',#330,#331,#50,.T.);
#395=EDGE_CURVE('',#336,#337,#295,.T.);
#396=EDGE_CURVE('',#337,#328,#51,.T.);
#397=EDGE_CURVE('',#329,#336,#52,.T.);
#398=EDGE_CURVE('',#322,#326,#53,.T.);
#399=EDGE_CURVE('',#327,#324,#54,.T.);
#400=EDGE_CURVE('',#338,#339,#296,.T.);
#401=EDGE_CURVE('',#339,#325,#55,.T.);
#402=EDGE_CURVE('',#326,#338,#56,.T.);
#403=EDGE_CURVE('',#340,#341,#297,.T.);
#404=EDGE_CURVE('',#341,#322,#57,.T.);
#405=EDGE_CURVE('',#323,#340,#58,.T.);
#406=EDGE_CURVE('',#334,#339,#59,.T.);
#407=EDGE_CURVE('',#338,#341,#60,.T.);
#408=EDGE_CURVE('',#340,#337,#61,.T.);
#409=EDGE_CURVE('',#336,#335,#62,.T.);
#410=EDGE_CURVE('',#342,#343,#63,.T.);
#411=EDGE_CURVE('',#343,#344,#64,.T.);
#412=EDGE_CURVE('',#344,#345,#65,.T.);
#413=EDGE_CURVE('',#345,#342,#66,.T.);
#414=EDGE_CURVE('',#346,#347,#67,.T.);
#415=EDGE_CURVE('',#348,#347,#298,.T.);
#416=EDGE_CURVE('',#349,#348,#68,.T.);
#417=EDGE_CURVE('',#346,#349,#299,.T.);
#418=EDGE_CURVE('',#349,#346,#300,.T.);
#419=EDGE_CURVE('',#347,#348,#301,.T.);
#420=EDGE_CURVE('',#350,#350,#302,.T.);
#421=EDGE_CURVE('',#350,#351,#69,.T.);
#422=EDGE_CURVE('',#351,#351,#303,.T.);
#423=EDGE_CURVE('',#352,#353,#70,.T.);
#424=EDGE_CURVE('',#354,#353,#304,.T.);
#425=EDGE_CURVE('',#355,#354,#71,.T.);
#426=EDGE_CURVE('',#352,#355,#305,.T.);
#427=EDGE_CURVE('',#355,#352,#306,.T.);
#428=EDGE_CURVE('',#353,#354,#307,.T.);
#429=EDGE_CURVE('',#356,#356,#308,.T.);
#430=EDGE_CURVE('',#356,#357,#72,.T.);
#431=EDGE_CURVE('',#357,#357,#309,.T.);
#432=EDGE_CURVE('',#358,#359,#73,.T.);
#433=EDGE_CURVE('',#360,#359,#310,.T.);
#434=EDGE_CURVE('',#361,#360,#74,.T.);
#435=EDGE_CURVE('',#358,#361,#311,.T.);
#436=EDGE_CURVE('',#361,#358,#312,.T.);
#437=EDGE_CURVE('',#359,#360,#313,.T.);
#438=EDGE_CURVE('',#362,#362,#314,.T.);
#439=EDGE_CURVE('',#362,#363,#75,.T.);
#440=EDGE_CURVE('',#363,#363,#315,.T.);
#441=EDGE_CURVE('',#364,#365,#76,.T.);
#442=EDGE_CURVE('',#366,#365,#316,.T.);
#443=EDGE_CURVE('',#367,#366,#77,.T.);
#444=EDGE_CURVE('',#364,#367,#317,.T.);
#445=EDGE_CURVE('',#367,#364,#318,.T.);
#446=EDGE_CURVE('',#365,#366,#319,.T.);
#447=EDGE_CURVE('',#368,#368,#320,.T.);
#448=EDGE_CURVE('',#368,#369,#78,.T.);
#449=EDGE_CURVE('',#369,#369,#321,.T.);
#450=EDGE_CURVE('',#370,#367,#79,.T.);
#451=EDGE_CURVE('',#364,#370,#80,.T.);
#452=EDGE_CURVE('',#371,#361,#81,.T.);
#453=EDGE_CURVE('',#358,#371,#82,.T.);
#454=EDGE_CURVE('',#372,#355,#83,.T.);
#455=EDGE_CURVE('',#352,#372,#84,.T.);
#456=EDGE_CURVE('',#355,#349,#85,.T.);
#457=EDGE_CURVE('',#367,#352,#86,.T.);
#458=EDGE_CURVE('',#361,#364,#87,.T.);
#459=EDGE_CURVE('',#346,#358,#88,.T.);
#460=EDGE_CURVE('',#373,#346,#89,.T.);
#461=EDGE_CURVE('',#349,#373,#90,.T.);
#462=EDGE_CURVE('',#355,#354,#91,.T.);
#463=EDGE_CURVE('',#349,#348,#92,.T.);
#464=EDGE_CURVE('',#373,#343,#93,.T.);
#465=EDGE_CURVE('',#372,#342,#94,.T.);
#466=EDGE_CURVE('',#346,#347,#95,.T.);
#467=EDGE_CURVE('',#358,#359,#96,.T.);
#468=EDGE_CURVE('',#371,#344,#97,.T.);
#469=EDGE_CURVE('',#367,#366,#98,.T.);
#470=EDGE_CURVE('',#352,#353,#99,.T.);
#471=EDGE_CURVE('',#370,#345,#100,.T.);
#472=EDGE_CURVE('',#361,#360,#101,.T.);
#473=EDGE_CURVE('',#364,#365,#102,.T.);
#474=ORIENTED_EDGE('',*,*,#374,.F.);
#475=ORIENTED_EDGE('',*,*,#375,.F.);
#476=ORIENTED_EDGE('',*,*,#376,.F.);
#477=ORIENTED_EDGE('',*,*,#377,.F.);
#478=ORIENTED_EDGE('',*,*,#378,.F.);
#479=ORIENTED_EDGE('',*,*,#379,.F.);
#480=ORIENTED_EDGE('',*,*,#380,.F.);
#481=ORIENTED_EDGE('',*,*,#381,.F.);
#482=ORIENTED_EDGE('',*,*,#382,.F.);
#483=ORIENTED_EDGE('',*,*,#381,.T.);
#484=ORIENTED_EDGE('',*,*,#383,.T.);
#485=ORIENTED_EDGE('',*,*,#376,.T.);
#486=ORIENTED_EDGE('',*,*,#384,.T.);
#487=ORIENTED_EDGE('',*,*,#385,.F.);
#488=ORIENTED_EDGE('',*,*,#386,.F.);
#489=ORIENTED_EDGE('',*,*,#387,.F.);
#490=ORIENTED_EDGE('',*,*,#378,.T.);
#491=ORIENTED_EDGE('',*,*,#388,.T.);
#492=ORIENTED_EDGE('',*,*,#386,.T.);
#493=ORIENTED_EDGE('',*,*,#389,.T.);
#494=ORIENTED_EDGE('',*,*,#390,.T.);
#495=ORIENTED_EDGE('',*,*,#391,.T.);
#496=ORIENTED_EDGE('',*,*,#387,.T.);
#497=ORIENTED_EDGE('',*,*,#392,.T.);
#498=ORIENTED_EDGE('',*,*,#385,.T.);
#499=ORIENTED_EDGE('',*,*,#393,.T.);
#500=ORIENTED_EDGE('',*,*,#382,.T.);
#501=ORIENTED_EDGE('',*,*,#394,.T.);
#502=ORIENTED_EDGE('',*,*,#395,.T.);
#503=ORIENTED_EDGE('',*,*,#396,.T.);
#504=ORIENTED_EDGE('',*,*,#380,.T.);
#505=ORIENTED_EDGE('',*,*,#397,.T.);
#506=ORIENTED_EDGE('',*,*,#375,.T.);
#507=ORIENTED_EDGE('',*,*,#398,.T.);
#508=ORIENTED_EDGE('',*,*,#379,.T.);
#509=ORIENTED_EDGE('',*,*,#399,.T.);
#510=ORIENTED_EDGE('',*,*,#400,.T.);
#511=ORIENTED_EDGE('',*,*,#401,.T.);
#512=ORIENTED_EDGE('',*,*,#377,.T.);
#513=ORIENTED_EDGE('',*,*,#402,.T.);
#514=ORIENTED_EDGE('',*,*,#403,.T.);
#515=ORIENTED_EDGE('',*,*,#404,.T.);
#516=ORIENTED_EDGE('',*,*,#374,.T.);
#517=ORIENTED_EDGE('',*,*,#405,.T.);
#518=ORIENTED_EDGE('',*,*,#392,.F.);
#519=ORIENTED_EDGE('',*,*,#388,.F.);
#520=ORIENTED_EDGE('',*,*,#401,.F.);
#521=ORIENTED_EDGE('',*,*,#406,.F.);
#522=ORIENTED_EDGE('',*,*,#390,.F.);
#523=ORIENTED_EDGE('',*,*,#406,.T.);
#524=ORIENTED_EDGE('',*,*,#400,.F.);
#525=ORIENTED_EDGE('',*,*,#407,.T.);
#526=ORIENTED_EDGE('',*,*,#403,.F.);
#527=ORIENTED_EDGE('',*,*,#408,.T.);
#528=ORIENTED_EDGE('',*,*,#395,.F.);
#529=ORIENTED_EDGE('',*,*,#409,.T.);
#530=ORIENTED_EDGE('',*,*,#410,.T.);
#531=ORIENTED_EDGE('',*,*,#411,.T.);
#532=ORIENTED_EDGE('',*,*,#412,.T.);
#533=ORIENTED_EDGE('',*,*,#413,.T.);
#534=ORIENTED_EDGE('',*,*,#402,.F.);
#535=ORIENTED_EDGE('',*,*,#398,.F.);
#536=ORIENTED_EDGE('',*,*,#404,.F.);
#537=ORIENTED_EDGE('',*,*,#407,.F.);
#538=ORIENTED_EDGE('',*,*,#389,.F.);
#539=ORIENTED_EDGE('',*,*,#394,.F.);
#540=ORIENTED_EDGE('',*,*,#384,.F.);
#541=ORIENTED_EDGE('',*,*,#399,.F.);
#542=ORIENTED_EDGE('',*,*,#414,.T.);
#543=ORIENTED_EDGE('',*,*,#415,.F.);
#544=ORIENTED_EDGE('',*,*,#416,.F.);
#545=ORIENTED_EDGE('',*,*,#417,.F.);
#546=ORIENTED_EDGE('',*,*,#414,.F.);
#547=ORIENTED_EDGE('',*,*,#418,.F.);
#548=ORIENTED_EDGE('',*,*,#416,.T.);
#549=ORIENTED_EDGE('',*,*,#419,.F.);
#550=ORIENTED_EDGE('',*,*,#420,.F.);
#551=ORIENTED_EDGE('',*,*,#421,.T.);
#552=ORIENTED_EDGE('',*,*,#422,.F.);
#553=ORIENTED_EDGE('',*,*,#421,.F.);
#554=ORIENTED_EDGE('',*,*,#415,.T.);
#555=ORIENTED_EDGE('',*,*,#419,.T.);
#556=ORIENTED_EDGE('',*,*,#420,.T.);
#557=ORIENTED_EDGE('',*,*,#423,.T.);
#558=ORIENTED_EDGE('',*,*,#424,.F.);
#559=ORIENTED_EDGE('',*,*,#425,.F.);
#560=ORIENTED_EDGE('',*,*,#426,.F.);
#561=ORIENTED_EDGE('',*,*,#423,.F.);
#562=ORIENTED_EDGE('',*,*,#427,.F.);
#563=ORIENTED_EDGE('',*,*,#425,.T.);
#564=ORIENTED_EDGE('',*,*,#428,.F.);
#565=ORIENTED_EDGE('',*,*,#429,.F.);
#566=ORIENTED_EDGE('',*,*,#430,.T.);
#567=ORIENTED_EDGE('',*,*,#431,.F.);
#568=ORIENTED_EDGE('',*,*,#430,.F.);
#569=ORIENTED_EDGE('',*,*,#428,.T.);
#570=ORIENTED_EDGE('',*,*,#424,.T.);
#571=ORIENTED_EDGE('',*,*,#429,.T.);
#572=ORIENTED_EDGE('',*,*,#432,.T.);
#573=ORIENTED_EDGE('',*,*,#433,.F.);
#574=ORIENTED_EDGE('',*,*,#434,.F.);
#575=ORIENTED_EDGE('',*,*,#435,.F.);
#576=ORIENTED_EDGE('',*,*,#432,.F.);
#577=ORIENTED_EDGE('',*,*,#436,.F.);
#578=ORIENTED_EDGE('',*,*,#434,.T.);
#579=ORIENTED_EDGE('',*,*,#437,.F.);
#580=ORIENTED_EDGE('',*,*,#438,.F.);
#581=ORIENTED_EDGE('',*,*,#439,.T.);
#582=ORIENTED_EDGE('',*,*,#440,.F.);
#583=ORIENTED_EDGE('',*,*,#439,.F.);
#584=ORIENTED_EDGE('',*,*,#437,.T.);
#585=ORIENTED_EDGE('',*,*,#433,.T.);
#586=ORIENTED_EDGE('',*,*,#438,.T.);
#587=ORIENTED_EDGE('',*,*,#441,.T.);
#588=ORIENTED_EDGE('',*,*,#442,.F.);
#589=ORIENTED_EDGE('',*,*,#443,.F.);
#590=ORIENTED_EDGE('',*,*,#444,.F.);
#591=ORIENTED_EDGE('',*,*,#441,.F.);
#592=ORIENTED_EDGE('',*,*,#445,.F.);
#593=ORIENTED_EDGE('',*,*,#443,.T.);
#594=ORIENTED_EDGE('',*,*,#446,.F.);
#595=ORIENTED_EDGE('',*,*,#447,.F.);
#596=ORIENTED_EDGE('',*,*,#448,.T.);
#597=ORIENTED_EDGE('',*,*,#449,.F.);
#598=ORIENTED_EDGE('',*,*,#448,.F.);
#599=ORIENTED_EDGE('',*,*,#442,.T.);
#600=ORIENTED_EDGE('',*,*,#446,.T.);
#601=ORIENTED_EDGE('',*,*,#447,.T.);
#602=ORIENTED_EDGE('',*,*,#444,.T.);
#603=ORIENTED_EDGE('',*,*,#450,.F.);
#604=ORIENTED_EDGE('',*,*,#451,.F.);
#605=ORIENTED_EDGE('',*,*,#449,.T.);
#606=ORIENTED_EDGE('',*,*,#435,.T.);
#607=ORIENTED_EDGE('',*,*,#452,.F.);
#608=ORIENTED_EDGE('',*,*,#453,.F.);
#609=ORIENTED_EDGE('',*,*,#440,.T.);
#610=ORIENTED_EDGE('',*,*,#426,.T.);
#611=ORIENTED_EDGE('',*,*,#454,.F.);
#612=ORIENTED_EDGE('',*,*,#455,.F.);
#613=ORIENTED_EDGE('',*,*,#431,.T.);
#614=ORIENTED_EDGE('',*,*,#417,.T.);
#615=ORIENTED_EDGE('',*,*,#456,.F.);
#616=ORIENTED_EDGE('',*,*,#427,.T.);
#617=ORIENTED_EDGE('',*,*,#457,.F.);
#618=ORIENTED_EDGE('',*,*,#445,.T.);
#619=ORIENTED_EDGE('',*,*,#458,.F.);
#620=ORIENTED_EDGE('',*,*,#436,.T.);
#621=ORIENTED_EDGE('',*,*,#459,.F.);
#622=ORIENTED_EDGE('',*,*,#418,.T.);
#623=ORIENTED_EDGE('',*,*,#460,.F.);
#624=ORIENTED_EDGE('',*,*,#461,.F.);
#625=ORIENTED_EDGE('',*,*,#422,.T.);
#626=ORIENTED_EDGE('',*,*,#454,.T.);
#627=ORIENTED_EDGE('',*,*,#462,.T.);
#628=ORIENTED_EDGE('',*,*,#462,.F.);
#629=ORIENTED_EDGE('',*,*,#456,.T.);
#630=ORIENTED_EDGE('',*,*,#463,.T.);
#631=ORIENTED_EDGE('',*,*,#463,.F.);
#632=ORIENTED_EDGE('',*,*,#461,.T.);
#633=ORIENTED_EDGE('',*,*,#464,.T.);
#634=ORIENTED_EDGE('',*,*,#410,.F.);
#635=ORIENTED_EDGE('',*,*,#465,.F.);
#636=ORIENTED_EDGE('',*,*,#460,.T.);
#637=ORIENTED_EDGE('',*,*,#466,.T.);
#638=ORIENTED_EDGE('',*,*,#466,.F.);
#639=ORIENTED_EDGE('',*,*,#459,.T.);
#640=ORIENTED_EDGE('',*,*,#467,.T.);
#641=ORIENTED_EDGE('',*,*,#467,.F.);
#642=ORIENTED_EDGE('',*,*,#453,.T.);
#643=ORIENTED_EDGE('',*,*,#468,.T.);
#644=ORIENTED_EDGE('',*,*,#411,.F.);
#645=ORIENTED_EDGE('',*,*,#464,.F.);
#646=ORIENTED_EDGE('',*,*,#450,.T.);
#647=ORIENTED_EDGE('',*,*,#469,.T.);
#648=ORIENTED_EDGE('',*,*,#469,.F.);
#649=ORIENTED_EDGE('',*,*,#457,.T.);
#650=ORIENTED_EDGE('',*,*,#470,.T.);
#651=ORIENTED_EDGE('',*,*,#470,.F.);
#652=ORIENTED_EDGE('',*,*,#455,.T.);
#653=ORIENTED_EDGE('',*,*,#465,.T.);
#654=ORIENTED_EDGE('',*,*,#413,.F.);
#655=ORIENTED_EDGE('',*,*,#471,.F.);
#656=ORIENTED_EDGE('',*,*,#452,.T.);
#657=ORIENTED_EDGE('',*,*,#472,.T.);
#658=ORIENTED_EDGE('',*,*,#472,.F.);
#659=ORIENTED_EDGE('',*,*,#458,.T.);
#660=ORIENTED_EDGE('',*,*,#473,.T.);
#661=ORIENTED_EDGE('',*,*,#473,.F.);
#662=ORIENTED_EDGE('',*,*,#451,.T.);
#663=ORIENTED_EDGE('',*,*,#471,.T.);
#664=ORIENTED_EDGE('',*,*,#412,.F.);
#665=ORIENTED_EDGE('',*,*,#468,.F.);
#666=ORIENTED_EDGE('',*,*,#391,.F.);
#667=ORIENTED_EDGE('',*,*,#409,.F.);
#668=ORIENTED_EDGE('',*,*,#397,.F.);
#669=ORIENTED_EDGE('',*,*,#393,.F.);
#670=ORIENTED_EDGE('',*,*,#396,.F.);
#671=ORIENTED_EDGE('',*,*,#408,.F.);
#672=ORIENTED_EDGE('',*,*,#405,.F.);
#673=ORIENTED_EDGE('',*,*,#383,.F.);
#674=SPHERICAL_SURFACE('',#748,1.);
#675=SPHERICAL_SURFACE('',#752,1.);
#676=SPHERICAL_SURFACE('',#756,1.);
#677=SPHERICAL_SURFACE('',#761,1.);
#678=ADVANCED_FACE('',(#183),#674,.T.);
#679=ADVANCED_FACE('',(#184),#675,.T.);
#680=ADVANCED_FACE('',(#185),#676,.T.);
#681=ADVANCED_FACE('',(#186),#163,.T.);
#682=ADVANCED_FACE('',(#187),#677,.T.);
#683=ADVANCED_FACE('',(#188),#164,.T.);
#684=ADVANCED_FACE('',(#189),#165,.T.);
#685=ADVANCED_FACE('',(#190),#166,.T.);
#686=ADVANCED_FACE('',(#191),#167,.T.);
#687=ADVANCED_FACE('',(#192),#168,.T.);
#688=ADVANCED_FACE('',(#193),#169,.T.);
#689=ADVANCED_FACE('',(#194),#170,.T.);
#690=ADVANCED_FACE('',(#195),#20,.T.);
#691=ADVANCED_FACE('',(#196,#15),#21,.T.);
#692=ADVANCED_FACE('',(#197),#22,.T.);
#693=ADVANCED_FACE('',(#198),#23,.F.);
#694=ADVANCED_FACE('',(#199),#171,.T.);
#695=ADVANCED_FACE('',(#200),#172,.T.);
#696=ADVANCED_FACE('',(#201),#173,.F.);
#697=ADVANCED_FACE('',(#202,#16),#24,.T.);
#698=ADVANCED_FACE('',(#203),#174,.T.);
#699=ADVANCED_FACE('',(#204),#175,.T.);
#700=ADVANCED_FACE('',(#205),#176,.F.);
#701=ADVANCED_FACE('',(#206,#17),#25,.T.);
#702=ADVANCED_FACE('',(#207),#177,.T.);
#703=ADVANCED_FACE('',(#208),#178,.T.);
#704=ADVANCED_FACE('',(#209),#179,.F.);
#705=ADVANCED_FACE('',(#210,#18),#26,.T.);
#706=ADVANCED_FACE('',(#211),#180,.T.);
#707=ADVANCED_FACE('',(#212),#181,.T.);
#708=ADVANCED_FACE('',(#213),#182,.F.);
#709=ADVANCED_FACE('',(#214,#19),#27,.T.);
#710=ADVANCED_FACE('',(#215),#28,.T.);
#711=ADVANCED_FACE('',(#216),#29,.T.);
#712=ADVANCED_FACE('',(#217),#30,.T.);
#713=ADVANCED_FACE('',(#218),#31,.T.);
#714=ADVANCED_FACE('',(#219),#32,.T.);
#715=ADVANCED_FACE('',(#220),#33,.T.);
#716=ADVANCED_FACE('',(#221),#34,.T.);
#717=ADVANCED_FACE('',(#222),#35,.T.);
#718=ADVANCED_FACE('',(#223),#36,.T.);
#719=ADVANCED_FACE('',(#224),#37,.T.);
#720=ADVANCED_FACE('',(#225),#38,.T.);
#721=ADVANCED_FACE('',(#226),#39,.T.);
#722=ADVANCED_FACE('',(#227),#40,.T.);
#723=ADVANCED_FACE('',(#228),#41,.T.);
#724=ADVANCED_FACE('',(#229),#42,.T.);
#725=CLOSED_SHELL('',(#678,#679,#680,#681,#682,#683,#684,#685,#686,#687,
#688,#689,#690,#691,#692,#693,#694,#695,#696,#697,#698,#699,#700,#701,#702,
#703,#704,#705,#706,#707,#708,#709,#710,#711,#712,#713,#714,#715,#716,#717,
#718,#719,#720,#721,#722,#723,#724));
#726=DERIVED_UNIT_ELEMENT(#729,1.);
#727=DERIVED_UNIT_ELEMENT(#1276,-3.);
#728=DIMENSIONAL_EXPONENTS(0.,1.,0.,0.,0.,0.,0.);
#729=(
CONVERSION_BASED_UNIT('gram',#731)
MASS_UNIT()
NAMED_UNIT(#728)
);
#730=(
MASS_UNIT()
NAMED_UNIT(*)
SI_UNIT(.KILO.,.GRAM.)
);
#731=MASS_MEASURE_WITH_UNIT(MASS_MEASURE(0.001),#730);
#732=DERIVED_UNIT((#726,#727));
#733=MEASURE_REPRESENTATION_ITEM('density measure',
POSITIVE_RATIO_MEASURE(1.),#732);
#734=PROPERTY_DEFINITION_REPRESENTATION(#739,#736);
#735=PROPERTY_DEFINITION_REPRESENTATION(#740,#737);
#736=REPRESENTATION('material name',(#738),#1273);
#737=REPRESENTATION('density',(#733),#1273);
#738=DESCRIPTIVE_REPRESENTATION_ITEM('Generic','Generic');
#739=PROPERTY_DEFINITION('material property','material name',#1283);
#740=PROPERTY_DEFINITION('material property','density of part',#1283);
#741=DATE_TIME_ROLE('creation_date');
#742=APPLIED_DATE_AND_TIME_ASSIGNMENT(#743,#741,(#1283));
#743=DATE_AND_TIME(#744,#745);
#744=CALENDAR_DATE(2026,28,1);
#745=LOCAL_TIME(0,0,0.,#746);
#746=COORDINATED_UNIVERSAL_TIME_OFFSET(0,0,.BEHIND.);
#747=AXIS2_PLACEMENT_3D('',#1071,#835,#836);
#748=AXIS2_PLACEMENT_3D('',#1072,#837,#838);
#749=AXIS2_PLACEMENT_3D('',#1075,#839,#840);
#750=AXIS2_PLACEMENT_3D('',#1077,#841,#842);
#751=AXIS2_PLACEMENT_3D('',#1078,#843,#844);
#752=AXIS2_PLACEMENT_3D('',#1079,#845,#846);
#753=AXIS2_PLACEMENT_3D('',#1082,#847,#848);
#754=AXIS2_PLACEMENT_3D('',#1084,#849,#850);
#755=AXIS2_PLACEMENT_3D('',#1085,#851,#852);
#756=AXIS2_PLACEMENT_3D('',#1086,#853,#854);
#757=AXIS2_PLACEMENT_3D('',#1089,#855,#856);
#758=AXIS2_PLACEMENT_3D('',#1091,#857,#858);
#759=AXIS2_PLACEMENT_3D('',#1092,#859,#860);
#760=AXIS2_PLACEMENT_3D('',#1093,#861,#862);
#761=AXIS2_PLACEMENT_3D('',#1096,#865,#866);
#762=AXIS2_PLACEMENT_3D('',#1099,#867,#868);
#763=AXIS2_PLACEMENT_3D('',#1101,#869,#870);
#764=AXIS2_PLACEMENT_3D('',#1102,#871,#872);
#765=AXIS2_PLACEMENT_3D('',#1103,#873,#874);
#766=AXIS2_PLACEMENT_3D('',#1106,#877,#878);
#767=AXIS2_PLACEMENT_3D('',#1109,#879,#880);
#768=AXIS2_PLACEMENT_3D('',#1112,#883,#884);
#769=AXIS2_PLACEMENT_3D('',#1115,#887,#888);
#770=AXIS2_PLACEMENT_3D('',#1118,#889,#890);
#771=AXIS2_PLACEMENT_3D('',#1121,#893,#894);
#772=AXIS2_PLACEMENT_3D('',#1124,#897,#898);
#773=AXIS2_PLACEMENT_3D('',#1127,#899,#900);
#774=AXIS2_PLACEMENT_3D('',#1130,#903,#904);
#775=AXIS2_PLACEMENT_3D('',#1133,#905,#906);
#776=AXIS2_PLACEMENT_3D('',#1136,#909,#910);
#777=AXIS2_PLACEMENT_3D('',#1138,#912,#913);
#778=AXIS2_PLACEMENT_3D('',#1150,#921,#922);
#779=AXIS2_PLACEMENT_3D('',#1151,#923,#924);
#780=AXIS2_PLACEMENT_3D('',#1152,#925,#926);
#781=AXIS2_PLACEMENT_3D('',#1157,#928,#929);
#782=AXIS2_PLACEMENT_3D('',#1160,#931,#932);
#783=AXIS2_PLACEMENT_3D('',#1161,#933,#934);
#784=AXIS2_PLACEMENT_3D('',#1162,#935,#936);
#785=AXIS2_PLACEMENT_3D('',#1163,#937,#938);
#786=AXIS2_PLACEMENT_3D('',#1164,#939,#940);
#787=AXIS2_PLACEMENT_3D('',#1166,#941,#942);
#788=AXIS2_PLACEMENT_3D('',#1169,#944,#945);
#789=AXIS2_PLACEMENT_3D('',#1170,#946,#947);
#790=AXIS2_PLACEMENT_3D('',#1171,#948,#949);
#791=AXIS2_PLACEMENT_3D('',#1176,#951,#952);
#792=AXIS2_PLACEMENT_3D('',#1179,#954,#955);
#793=AXIS2_PLACEMENT_3D('',#1180,#956,#957);
#794=AXIS2_PLACEMENT_3D('',#1181,#958,#959);
#795=AXIS2_PLACEMENT_3D('',#1182,#960,#961);
#796=AXIS2_PLACEMENT_3D('',#1183,#962,#963);
#797=AXIS2_PLACEMENT_3D('',#1185,#964,#965);
#798=AXIS2_PLACEMENT_3D('',#1188,#967,#968);
#799=AXIS2_PLACEMENT_3D('',#1189,#969,#970);
#800=AXIS2_PLACEMENT_3D('',#1190,#971,#972);
#801=AXIS2_PLACEMENT_3D('',#1195,#974,#975);
#802=AXIS2_PLACEMENT_3D('',#1198,#977,#978);
#803=AXIS2_PLACEMENT_3D('',#1199,#979,#980);
#804=AXIS2_PLACEMENT_3D('',#1200,#981,#982);
#805=AXIS2_PLACEMENT_3D('',#1201,#983,#984);
#806=AXIS2_PLACEMENT_3D('',#1202,#985,#986);
#807=AXIS2_PLACEMENT_3D('',#1204,#987,#988);
#808=AXIS2_PLACEMENT_3D('',#1207,#990,#991);
#809=AXIS2_PLACEMENT_3D('',#1208,#992,#993);
#810=AXIS2_PLACEMENT_3D('',#1209,#994,#995);
#811=AXIS2_PLACEMENT_3D('',#1214,#997,#998);
#812=AXIS2_PLACEMENT_3D('',#1217,#1000,#1001);
#813=AXIS2_PLACEMENT_3D('',#1218,#1002,#1003);
#814=AXIS2_PLACEMENT_3D('',#1219,#1004,#1005);
#815=AXIS2_PLACEMENT_3D('',#1220,#1006,#1007);
#816=AXIS2_PLACEMENT_3D('',#1221,#1008,#1009);
#817=AXIS2_PLACEMENT_3D('',#1223,#1010,#1011);
#818=AXIS2_PLACEMENT_3D('',#1226,#1013,#1014);
#819=AXIS2_PLACEMENT_3D('',#1227,#1015,#1016);
#820=AXIS2_PLACEMENT_3D('',#1228,#1017,#1018);
#821=AXIS2_PLACEMENT_3D('',#1232,#1021,#1022);
#822=AXIS2_PLACEMENT_3D('',#1233,#1023,#1024);
#823=AXIS2_PLACEMENT_3D('',#1237,#1027,#1028);
#824=AXIS2_PLACEMENT_3D('',#1238,#1029,#1030);
#825=AXIS2_PLACEMENT_3D('',#1242,#1033,#1034);
#826=AXIS2_PLACEMENT_3D('',#1243,#1035,#1036);
#827=AXIS2_PLACEMENT_3D('',#1248,#1041,#1042);
#828=AXIS2_PLACEMENT_3D('',#1252,#1045,#1046);
#829=AXIS2_PLACEMENT_3D('',#1253,#1047,#1048);
#830=AXIS2_PLACEMENT_3D('',#1258,#1053,#1054);
#831=AXIS2_PLACEMENT_3D('',#1262,#1058,#1059);
#832=AXIS2_PLACEMENT_3D('',#1266,#1063,#1064);
#833=AXIS2_PLACEMENT_3D('',#1269,#1067,#1068);
#834=AXIS2_PLACEMENT_3D('',#1270,#1069,#1070);
#835=DIRECTION('axis',(0.,0.,1.));
#836=DIRECTION('refdir',(1.,0.,0.));
#837=DIRECTION('center_axis',(-0.816496580927727,0.408248290463863,0.408248290463861));
#838=DIRECTION('ref_axis',(-0.577350269189623,-0.577350269189628,-0.577350269189626));
#839=DIRECTION('center_axis',(0.,0.,-1.));
#840=DIRECTION('ref_axis',(-1.,0.,0.));
#841=DIRECTION('center_axis',(2.22044604925032E-15,-1.,0.));
#842=DIRECTION('ref_axis',(0.,0.,-1.));
#843=DIRECTION('center_axis',(-1.,0.,0.));
#844=DIRECTION('ref_axis',(0.,-1.,0.));
#845=DIRECTION('center_axis',(-0.816496580927727,-0.408248290463862,0.408248290463862));
#846=DIRECTION('ref_axis',(-0.577350269189623,0.577350269189627,-0.577350269189627));
#847=DIRECTION('center_axis',(0.,0.,-1.));
#848=DIRECTION('ref_axis',(0.,1.,0.));
#849=DIRECTION('center_axis',(-1.,0.,0.));
#850=DIRECTION('ref_axis',(0.,0.,-1.));
#851=DIRECTION('center_axis',(0.,1.,0.));
#852=DIRECTION('ref_axis',(-1.,0.,0.));
#853=DIRECTION('center_axis',(-0.408248290463863,0.408248290463863,-0.816496580927726));
#854=DIRECTION('ref_axis',(0.577350269189626,-0.577350269189625,-0.577350269189626));
#855=DIRECTION('center_axis',(0.,0.,-1.));
#856=DIRECTION('ref_axis',(2.11471052309554E-16,-1.,0.));
#857=DIRECTION('center_axis',(1.,0.,0.));
#858=DIRECTION('ref_axis',(0.,0.,-1.));
#859=DIRECTION('center_axis',(0.,-1.,0.));
#860=DIRECTION('ref_axis',(1.,0.,0.));
#861=DIRECTION('center_axis',(1.,2.11471052309554E-16,0.));
#862=DIRECTION('ref_axis',(0.,-0.707106781186547,-0.707106781186548));
#863=DIRECTION('',(-1.,-2.11471052309554E-16,0.));
#864=DIRECTION('',(1.,2.11471052309554E-16,0.));
#865=DIRECTION('center_axis',(-0.816496580927726,0.408248290463863,-0.408248290463863));
#866=DIRECTION('ref_axis',(0.577350269189626,0.577350269189626,-0.577350269189626));
#867=DIRECTION('center_axis',(0.,1.,0.));
#868=DIRECTION('ref_axis',(0.,0.,-1.));
#869=DIRECTION('center_axis',(1.,0.,0.));
#870=DIRECTION('ref_axis',(0.,1.,0.));
#871=DIRECTION('center_axis',(0.,0.,-1.));
#872=DIRECTION('ref_axis',(1.,0.,0.));
#873=DIRECTION('center_axis',(-1.,-3.70074341541719E-16,0.));
#874=DIRECTION('ref_axis',(0.,0.707106781186548,-0.707106781186547));
#875=DIRECTION('',(1.,3.70074341541719E-16,0.));
#876=DIRECTION('',(-1.,-3.70074341541719E-16,0.));
#877=DIRECTION('center_axis',(0.,0.,1.));
#878=DIRECTION('ref_axis',(0.707106781186547,0.707106781186548,0.));
#879=DIRECTION('center_axis',(0.,0.,-1.));
#880=DIRECTION('ref_axis',(0.707106781186547,0.707106781186548,0.));
#881=DIRECTION('',(0.,0.,-1.));
#882=DIRECTION('',(0.,0.,1.));
#883=DIRECTION('center_axis',(-8.16340459283203E-17,1.,0.));
#884=DIRECTION('ref_axis',(0.707106781186547,0.,-0.707106781186548));
#885=DIRECTION('',(8.16340459283203E-17,-1.,0.));
#886=DIRECTION('',(-8.16340459283203E-17,1.,0.));
#887=DIRECTION('center_axis',(0.,0.,1.));
#888=DIRECTION('ref_axis',(0.707106781186548,-0.707106781186547,0.));
#889=DIRECTION('center_axis',(0.,0.,-1.));
#890=DIRECTION('ref_axis',(0.707106781186548,-0.707106781186547,0.));
#891=DIRECTION('',(0.,0.,-1.));
#892=DIRECTION('',(0.,0.,1.));
#893=DIRECTION('center_axis',(0.,-1.,0.));
#894=DIRECTION('ref_axis',(-0.707106781186546,0.,-0.707106781186549));
#895=DIRECTION('',(0.,1.,0.));
#896=DIRECTION('',(0.,-1.,0.));
#897=DIRECTION('center_axis',(0.,0.,1.));
#898=DIRECTION('ref_axis',(-0.707106781186546,0.707106781186549,0.));
#899=DIRECTION('center_axis',(0.,0.,-1.));
#900=DIRECTION('ref_axis',(-0.707106781186546,0.707106781186549,0.));
#901=DIRECTION('',(0.,0.,-1.));
#902=DIRECTION('',(0.,0.,1.));
#903=DIRECTION('center_axis',(0.,0.,1.));
#904=DIRECTION('ref_axis',(-0.707106781186547,-0.707106781186549,0.));
#905=DIRECTION('center_axis',(0.,0.,-1.));
#906=DIRECTION('ref_axis',(-0.707106781186547,-0.707106781186549,0.));
#907=DIRECTION('',(0.,0.,-1.));
#908=DIRECTION('',(0.,0.,1.));
#909=DIRECTION('center_axis',(-3.70074341541719E-16,1.,0.));
#910=DIRECTION('ref_axis',(-1.,-3.70074341541719E-16,0.));
#911=DIRECTION('',(-1.,-3.70074341541719E-16,0.));
#912=DIRECTION('center_axis',(0.,0.,1.));
#913=DIRECTION('ref_axis',(1.,0.,0.));
#914=DIRECTION('',(0.,-1.,0.));
#915=DIRECTION('',(1.,2.11471052309554E-16,0.));
#916=DIRECTION('',(-8.16340459283203E-17,1.,0.));
#917=DIRECTION('',(-1.,0.,0.));
#918=DIRECTION('',(0.,1.,0.));
#919=DIRECTION('',(1.,3.33066907387547E-16,0.));
#920=DIRECTION('',(3.36436433469825E-32,-1.,0.));
#921=DIRECTION('center_axis',(-1.,0.,0.));
#922=DIRECTION('ref_axis',(0.,-1.,0.));
#923=DIRECTION('center_axis',(0.,0.,1.));
#924=DIRECTION('ref_axis',(1.,0.,0.));
#925=DIRECTION('center_axis',(0.,0.,1.));
#926=DIRECTION('ref_axis',(1.,0.,0.));
#927=DIRECTION('',(0.,0.,1.));
#928=DIRECTION('center_axis',(0.,0.,1.));
#929=DIRECTION('ref_axis',(1.,0.,0.));
#930=DIRECTION('',(0.,0.,1.));
#931=DIRECTION('center_axis',(0.,0.,-1.));
#932=DIRECTION('ref_axis',(1.,0.,0.));
#933=DIRECTION('center_axis',(0.,0.,1.));
#934=DIRECTION('ref_axis',(1.,0.,0.));
#935=DIRECTION('center_axis',(0.,0.,-1.));
#936=DIRECTION('ref_axis',(1.,0.,0.));
#937=DIRECTION('center_axis',(0.,0.,1.));
#938=DIRECTION('ref_axis',(1.,0.,0.));
#939=DIRECTION('center_axis',(0.,0.,1.));
#940=DIRECTION('ref_axis',(-1.,0.,0.));
#941=DIRECTION('center_axis',(0.,0.,-1.));
#942=DIRECTION('ref_axis',(-1.,0.,0.));
#943=DIRECTION('',(0.,0.,-1.));
#944=DIRECTION('center_axis',(0.,0.,1.));
#945=DIRECTION('ref_axis',(-1.,0.,0.));
#946=DIRECTION('center_axis',(0.,0.,1.));
#947=DIRECTION('ref_axis',(1.,0.,0.));
#948=DIRECTION('center_axis',(0.,0.,1.));
#949=DIRECTION('ref_axis',(1.,0.,0.));
#950=DIRECTION('',(0.,0.,1.));
#951=DIRECTION('center_axis',(0.,0.,1.));
#952=DIRECTION('ref_axis',(1.,0.,0.));
#953=DIRECTION('',(0.,0.,1.));
#954=DIRECTION('center_axis',(0.,0.,-1.));
#955=DIRECTION('ref_axis',(1.,0.,0.));
#956=DIRECTION('center_axis',(0.,0.,1.));
#957=DIRECTION('ref_axis',(-0.707106781186548,0.707106781186548,0.));
#958=DIRECTION('center_axis',(0.,0.,-1.));
#959=DIRECTION('ref_axis',(1.,0.,0.));
#960=DIRECTION('center_axis',(0.,0.,1.));
#961=DIRECTION('ref_axis',(1.,0.,0.));
#962=DIRECTION('center_axis',(0.,0.,1.));
#963=DIRECTION('ref_axis',(-1.,0.,0.));
#964=DIRECTION('center_axis',(0.,0.,-1.));
#965=DIRECTION('ref_axis',(-1.,0.,0.));
#966=DIRECTION('',(0.,0.,-1.));
#967=DIRECTION('center_axis',(0.,0.,1.));
#968=DIRECTION('ref_axis',(-1.,0.,0.));
#969=DIRECTION('center_axis',(0.,0.,1.));
#970=DIRECTION('ref_axis',(1.,0.,0.));
#971=DIRECTION('center_axis',(0.,0.,1.));
#972=DIRECTION('ref_axis',(1.,0.,0.));
#973=DIRECTION('',(0.,0.,1.));
#974=DIRECTION('center_axis',(0.,0.,1.));
#975=DIRECTION('ref_axis',(1.,0.,0.));
#976=DIRECTION('',(0.,0.,1.));
#977=DIRECTION('center_axis',(0.,0.,-1.));
#978=DIRECTION('ref_axis',(1.,0.,0.));
#979=DIRECTION('center_axis',(0.,0.,1.));
#980=DIRECTION('ref_axis',(1.,0.,0.));
#981=DIRECTION('center_axis',(0.,0.,-1.));
#982=DIRECTION('ref_axis',(1.,0.,0.));
#983=DIRECTION('center_axis',(0.,0.,1.));
#984=DIRECTION('ref_axis',(1.,0.,0.));
#985=DIRECTION('center_axis',(0.,0.,1.));
#986=DIRECTION('ref_axis',(-1.,0.,0.));
#987=DIRECTION('center_axis',(0.,0.,-1.));
#988=DIRECTION('ref_axis',(-1.,0.,0.));
#989=DIRECTION('',(0.,0.,-1.));
#990=DIRECTION('center_axis',(0.,0.,1.));
#991=DIRECTION('ref_axis',(-1.,0.,0.));
#992=DIRECTION('center_axis',(0.,0.,1.));
#993=DIRECTION('ref_axis',(1.,0.,0.));
#994=DIRECTION('center_axis',(0.,0.,1.));
#995=DIRECTION('ref_axis',(1.,0.,0.));
#996=DIRECTION('',(0.,0.,1.));
#997=DIRECTION('center_axis',(0.,0.,1.));
#998=DIRECTION('ref_axis',(1.,0.,0.));
#999=DIRECTION('',(0.,0.,1.));
#1000=DIRECTION('center_axis',(0.,0.,-1.));
#1001=DIRECTION('ref_axis',(1.,0.,0.));
#1002=DIRECTION('center_axis',(0.,0.,1.));
#1003=DIRECTION('ref_axis',(-0.707106781186548,-0.707106781186547,0.));
#1004=DIRECTION('center_axis',(0.,0.,-1.));
#1005=DIRECTION('ref_axis',(1.,0.,0.));
#1006=DIRECTION('center_axis',(0.,0.,1.));
#1007=DIRECTION('ref_axis',(1.,0.,0.));
#1008=DIRECTION('center_axis',(0.,0.,1.));
#1009=DIRECTION('ref_axis',(-1.,0.,0.));
#1010=DIRECTION('center_axis',(0.,0.,-1.));
#1011=DIRECTION('ref_axis',(-1.,0.,0.));
#1012=DIRECTION('',(0.,0.,-1.));
#1013=DIRECTION('center_axis',(0.,0.,1.));
#1014=DIRECTION('ref_axis',(-1.,0.,0.));
#1015=DIRECTION('center_axis',(0.,0.,1.));
#1016=DIRECTION('ref_axis',(1.,0.,0.));
#1017=DIRECTION('center_axis',(0.,0.,1.));
#1018=DIRECTION('ref_axis',(1.,0.,0.));
#1019=DIRECTION('',(3.36436433469825E-32,-1.,0.));
#1020=DIRECTION('',(1.,3.33066907387547E-16,0.));
#1021=DIRECTION('center_axis',(0.,0.,1.));
#1022=DIRECTION('ref_axis',(1.,0.,0.));
#1023=DIRECTION('center_axis',(0.,0.,1.));
#1024=DIRECTION('ref_axis',(1.,0.,0.));
#1025=DIRECTION('',(1.,3.33066907387547E-16,0.));
#1026=DIRECTION('',(0.,1.,0.));
#1027=DIRECTION('center_axis',(0.,0.,1.));
#1028=DIRECTION('ref_axis',(1.,0.,0.));
#1029=DIRECTION('center_axis',(0.,0.,1.));
#1030=DIRECTION('ref_axis',(1.,0.,0.));
#1031=DIRECTION('',(-1.,0.,0.));
#1032=DIRECTION('',(3.36436433469825E-32,-1.,0.));
#1033=DIRECTION('center_axis',(0.,0.,1.));
#1034=DIRECTION('ref_axis',(1.,0.,0.));
#1035=DIRECTION('center_axis',(0.,0.,1.));
#1036=DIRECTION('ref_axis',(1.,0.,0.));
#1037=DIRECTION('',(-1.,0.,0.));
#1038=DIRECTION('',(3.36436433469825E-32,-1.,0.));
#1039=DIRECTION('',(1.,3.33066907387547E-16,0.));
#1040=DIRECTION('',(0.,1.,0.));
#1041=DIRECTION('center_axis',(0.,0.,1.));
#1042=DIRECTION('ref_axis',(1.,0.,0.));
#1043=DIRECTION('',(0.,1.,0.));
#1044=DIRECTION('',(-1.,0.,0.));
#1045=DIRECTION('center_axis',(0.,0.,1.));
#1046=DIRECTION('ref_axis',(1.,0.,0.));
#1047=DIRECTION('center_axis',(0.,1.,0.));
#1048=DIRECTION('ref_axis',(-1.,0.,0.));
#1049=DIRECTION('',(0.,0.,1.));
#1050=DIRECTION('',(0.,0.,1.));
#1051=DIRECTION('',(0.,0.,1.));
#1052=DIRECTION('',(0.,0.,1.));
#1053=DIRECTION('center_axis',(1.,0.,0.));
#1054=DIRECTION('ref_axis',(0.,1.,0.));
#1055=DIRECTION('',(0.,0.,1.));
#1056=DIRECTION('',(0.,0.,1.));
#1057=DIRECTION('',(0.,0.,1.));
#1058=DIRECTION('center_axis',(-1.,-3.36436433469825E-32,0.));
#1059=DIRECTION('ref_axis',(3.36436433469825E-32,-1.,0.));
#1060=DIRECTION('',(0.,0.,1.));
#1061=DIRECTION('',(0.,0.,1.));
#1062=DIRECTION('',(0.,0.,1.));
#1063=DIRECTION('center_axis',(3.33066907387547E-16,-1.,0.));
#1064=DIRECTION('ref_axis',(1.,3.33066907387547E-16,0.));
#1065=DIRECTION('',(0.,0.,1.));
#1066=DIRECTION('',(0.,0.,1.));
#1067=DIRECTION('center_axis',(1.,8.16340459283203E-17,0.));
#1068=DIRECTION('ref_axis',(-8.16340459283203E-17,1.,0.));
#1069=DIRECTION('center_axis',(2.11471052309554E-16,-1.,0.));
#1070=DIRECTION('ref_axis',(1.,2.11471052309554E-16,0.));
#1071=CARTESIAN_POINT('',(0.,0.,0.));
#1072=CARTESIAN_POINT('Origin',(-40.,-4.44089209850063E-15,1.));
#1073=CARTESIAN_POINT('',(-41.,-6.66133814775094E-15,1.));
#1074=CARTESIAN_POINT('',(-40.,-1.00000000000001,1.));
#1075=CARTESIAN_POINT('Origin',(-40.,-5.55111512312578E-15,1.));
#1076=CARTESIAN_POINT('',(-40.,-5.33964407081623E-15,0.));
#1077=CARTESIAN_POINT('Origin',(-40.,-4.44089209850063E-15,1.));
#1078=CARTESIAN_POINT('Origin',(-40.,-5.33964407081623E-15,1.));
#1079=CARTESIAN_POINT('Origin',(-40.,15.,1.));
#1080=CARTESIAN_POINT('',(-40.,16.,1.));
#1081=CARTESIAN_POINT('',(-41.,15.,1.));
#1082=CARTESIAN_POINT('Origin',(-40.,15.,1.));
#1083=CARTESIAN_POINT('',(-40.,15.,0.));
#1084=CARTESIAN_POINT('Origin',(-40.,15.,1.));
#1085=CARTESIAN_POINT('Origin',(-40.,15.,1.));
#1086=CARTESIAN_POINT('Origin',(0.,3.11919802156592E-15,1.));
#1087=CARTESIAN_POINT('',(0.,-0.999999999999997,1.));
#1088=CARTESIAN_POINT('',(1.,3.44534547172716E-15,1.));
#1089=CARTESIAN_POINT('Origin',(0.,3.36371142579884E-15,1.));
#1090=CARTESIAN_POINT('',(2.65310649267041E-16,3.33066907387547E-15,0.));
#1091=CARTESIAN_POINT('Origin',(0.,3.11919802156592E-15,1.));
#1092=CARTESIAN_POINT('Origin',(2.65310649267041E-16,3.33066907387547E-15,
1.));
#1093=CARTESIAN_POINT('Origin',(-30.5,-3.33066907387547E-15,1.));
#1094=CARTESIAN_POINT('',(-30.5,-1.,1.));
#1095=CARTESIAN_POINT('',(-30.5,-3.33066907387547E-15,0.));
#1096=CARTESIAN_POINT('Origin',(-1.11022302462516E-15,15.,1.));
#1097=CARTESIAN_POINT('',(-1.11022302462516E-15,15.,0.));
#1098=CARTESIAN_POINT('',(0.999999999999999,15.,1.));
#1099=CARTESIAN_POINT('Origin',(-9.59200039657764E-16,15.,1.));
#1100=CARTESIAN_POINT('',(-1.64764716031993E-15,16.,1.));
#1101=CARTESIAN_POINT('Origin',(-1.11022302462516E-15,15.,1.));
#1102=CARTESIAN_POINT('Origin',(-1.27757281877821E-15,15.,1.));
#1103=CARTESIAN_POINT('Origin',(-9.5,15.,1.));
#1104=CARTESIAN_POINT('',(-9.5,16.,1.));
#1105=CARTESIAN_POINT('',(-9.5,15.,0.));
#1106=CARTESIAN_POINT('Origin',(-1.27757281877821E-15,15.,0.));
#1107=CARTESIAN_POINT('',(-1.66533453693773E-15,16.,6.));
#1108=CARTESIAN_POINT('',(0.999999999999999,15.,6.));
#1109=CARTESIAN_POINT('Origin',(-1.27757281877821E-15,15.,6.));
#1110=CARTESIAN_POINT('',(0.999999999999999,15.,0.));
#1111=CARTESIAN_POINT('',(-1.64764716031993E-15,16.,0.));
#1112=CARTESIAN_POINT('Origin',(0.,3.25,1.));
#1113=CARTESIAN_POINT('',(1.,3.25,1.));
#1114=CARTESIAN_POINT('',(0.,3.25,0.));
#1115=CARTESIAN_POINT('Origin',(0.,3.36371142579884E-15,0.));
#1116=CARTESIAN_POINT('',(1.,3.46944695195361E-15,6.));
#1117=CARTESIAN_POINT('',(0.,-0.999999999999997,6.));
#1118=CARTESIAN_POINT('Origin',(0.,3.36371142579884E-15,6.));
#1119=CARTESIAN_POINT('',(2.11471052309554E-16,-0.999999999999997,0.));
#1120=CARTESIAN_POINT('',(1.,3.44534547172716E-15,0.));
#1121=CARTESIAN_POINT('Origin',(-40.,11.75,1.));
#1122=CARTESIAN_POINT('',(-41.,11.75,1.));
#1123=CARTESIAN_POINT('',(-40.,11.75,0.));
#1124=CARTESIAN_POINT('Origin',(-40.,15.,0.));
#1125=CARTESIAN_POINT('',(-41.,15.,6.));
#1126=CARTESIAN_POINT('',(-40.,16.,6.));
#1127=CARTESIAN_POINT('Origin',(-40.,15.,6.));
#1128=CARTESIAN_POINT('',(-40.,16.,0.));
#1129=CARTESIAN_POINT('',(-41.,15.,0.));
#1130=CARTESIAN_POINT('Origin',(-40.,-5.55111512312578E-15,0.));
#1131=CARTESIAN_POINT('',(-40.,-1.00000000000001,6.));
#1132=CARTESIAN_POINT('',(-41.,-4.44089209850063E-15,6.));
#1133=CARTESIAN_POINT('Origin',(-40.,-5.55111512312578E-15,6.));
#1134=CARTESIAN_POINT('',(-41.,-5.55111512312578E-15,0.));
#1135=CARTESIAN_POINT('',(-40.,-1.00000000000001,0.));
#1136=CARTESIAN_POINT('Origin',(0.999999999999999,16.,0.));
#1137=CARTESIAN_POINT('',(0.999999999999996,16.,6.));
#1138=CARTESIAN_POINT('Origin',(-20.,7.5,6.));
#1139=CARTESIAN_POINT('',(-41.,16.,6.));
#1140=CARTESIAN_POINT('',(-41.,-1.00000000000001,6.));
#1141=CARTESIAN_POINT('',(1.,-0.999999999999996,6.));
#1142=CARTESIAN_POINT('',(0.,0.,6.));
#1143=CARTESIAN_POINT('',(-40.,0.,6.));
#1144=CARTESIAN_POINT('',(0.,0.,6.));
#1145=CARTESIAN_POINT('',(-40.,15.,6.));
#1146=CARTESIAN_POINT('',(-40.,0.,6.));
#1147=CARTESIAN_POINT('',(0.,15.,6.));
#1148=CARTESIAN_POINT('',(-40.,15.,6.));
#1149=CARTESIAN_POINT('',(-5.04654650204737E-31,15.,6.));
#1150=CARTESIAN_POINT('Origin',(-41.,16.,0.));
#1151=CARTESIAN_POINT('Origin',(-20.,7.5,0.));
#1152=CARTESIAN_POINT('Origin',(-38.707,1.293,0.));
#1153=CARTESIAN_POINT('',(-40.,1.293,1.));
#1154=CARTESIAN_POINT('',(-40.,1.293,5.));
#1155=CARTESIAN_POINT('',(-40.,1.293,0.));
#1156=CARTESIAN_POINT('',(-38.707,0.,5.));
#1157=CARTESIAN_POINT('Origin',(-38.707,1.293,5.));
#1158=CARTESIAN_POINT('',(-38.707,0.,1.));
#1159=CARTESIAN_POINT('',(-38.707,0.,0.));
#1160=CARTESIAN_POINT('Origin',(-38.707,1.293,1.));
#1161=CARTESIAN_POINT('Origin',(-38.707,1.293,0.));
#1162=CARTESIAN_POINT('Origin',(-38.707,1.293,1.));
#1163=CARTESIAN_POINT('Origin',(-38.707,1.293,5.));
#1164=CARTESIAN_POINT('Origin',(-38.707,1.293,0.));
#1165=CARTESIAN_POINT('',(-37.957,1.293,5.));
#1166=CARTESIAN_POINT('Origin',(-38.707,1.293,5.));
#1167=CARTESIAN_POINT('',(-37.957,1.293,1.));
#1168=CARTESIAN_POINT('',(-37.957,1.293,0.));
#1169=CARTESIAN_POINT('Origin',(-38.707,1.293,1.));
#1170=CARTESIAN_POINT('Origin',(-38.707,1.293,5.));
#1171=CARTESIAN_POINT('Origin',(-1.293,1.293,0.));
#1172=CARTESIAN_POINT('',(0.,1.293,1.));
#1173=CARTESIAN_POINT('',(0.,1.293,5.));
#1174=CARTESIAN_POINT('',(0.,1.293,0.));
#1175=CARTESIAN_POINT('',(-1.293,0.,5.));
#1176=CARTESIAN_POINT('Origin',(-1.293,1.293,5.));
#1177=CARTESIAN_POINT('',(-1.293,0.,1.));
#1178=CARTESIAN_POINT('',(-1.293,0.,0.));
#1179=CARTESIAN_POINT('Origin',(-1.293,1.293,1.));
#1180=CARTESIAN_POINT('Origin',(-1.293,1.293,0.));
#1181=CARTESIAN_POINT('Origin',(-1.293,1.293,1.));
#1182=CARTESIAN_POINT('Origin',(-1.293,1.293,5.));
#1183=CARTESIAN_POINT('Origin',(-1.293,1.293,0.));
#1184=CARTESIAN_POINT('',(-0.543,1.293,5.));
#1185=CARTESIAN_POINT('Origin',(-1.293,1.293,5.));
#1186=CARTESIAN_POINT('',(-0.543,1.293,1.));
#1187=CARTESIAN_POINT('',(-0.543,1.293,0.));
#1188=CARTESIAN_POINT('Origin',(-1.293,1.293,1.));
#1189=CARTESIAN_POINT('Origin',(-1.293,1.293,5.));
#1190=CARTESIAN_POINT('Origin',(-38.707,13.707,0.));
#1191=CARTESIAN_POINT('',(-40.,13.707,1.));
#1192=CARTESIAN_POINT('',(-40.,13.707,5.));
#1193=CARTESIAN_POINT('',(-40.,13.707,0.));
#1194=CARTESIAN_POINT('',(-38.707,15.,5.));
#1195=CARTESIAN_POINT('Origin',(-38.707,13.707,5.));
#1196=CARTESIAN_POINT('',(-38.707,15.,1.));
#1197=CARTESIAN_POINT('',(-38.707,15.,0.));
#1198=CARTESIAN_POINT('Origin',(-38.707,13.707,1.));
#1199=CARTESIAN_POINT('Origin',(-38.707,13.707,0.));
#1200=CARTESIAN_POINT('Origin',(-38.707,13.707,1.));
#1201=CARTESIAN_POINT('Origin',(-38.707,13.707,5.));
#1202=CARTESIAN_POINT('Origin',(-38.707,13.707,0.));
#1203=CARTESIAN_POINT('',(-37.957,13.707,5.));
#1204=CARTESIAN_POINT('Origin',(-38.707,13.707,5.));
#1205=CARTESIAN_POINT('',(-37.957,13.707,1.));
#1206=CARTESIAN_POINT('',(-37.957,13.707,0.));
#1207=CARTESIAN_POINT('Origin',(-38.707,13.707,1.));
#1208=CARTESIAN_POINT('Origin',(-38.707,13.707,5.));
#1209=CARTESIAN_POINT('Origin',(-1.293,13.707,0.));
#1210=CARTESIAN_POINT('',(-1.293,15.,1.));
#1211=CARTESIAN_POINT('',(-1.293,15.,5.));
#1212=CARTESIAN_POINT('',(-1.293,15.,0.));
#1213=CARTESIAN_POINT('',(0.,13.707,5.));
#1214=CARTESIAN_POINT('Origin',(-1.293,13.707,5.));
#1215=CARTESIAN_POINT('',(0.,13.707,1.));
#1216=CARTESIAN_POINT('',(0.,13.707,0.));
#1217=CARTESIAN_POINT('Origin',(-1.293,13.707,1.));
#1218=CARTESIAN_POINT('Origin',(-1.293,13.707,0.));
#1219=CARTESIAN_POINT('Origin',(-1.293,13.707,1.));
#1220=CARTESIAN_POINT('Origin',(-1.293,13.707,5.));
#1221=CARTESIAN_POINT('Origin',(-1.293,13.707,0.));
#1222=CARTESIAN_POINT('',(-0.543000000000004,13.707,5.));
#1223=CARTESIAN_POINT('Origin',(-1.293,13.707,5.));
#1224=CARTESIAN_POINT('',(-0.543000000000004,13.707,1.));
#1225=CARTESIAN_POINT('',(-0.543000000000004,13.707,0.));
#1226=CARTESIAN_POINT('Origin',(-1.293,13.707,1.));
#1227=CARTESIAN_POINT('Origin',(-1.293,13.707,5.));
#1228=CARTESIAN_POINT('Origin',(-20.,7.50000000000001,1.));
#1229=CARTESIAN_POINT('',(-5.04654650204737E-31,15.,1.));
#1230=CARTESIAN_POINT('',(0.,11.25,1.));
#1231=CARTESIAN_POINT('',(-30.,15.,1.));
#1232=CARTESIAN_POINT('Origin',(-20.,7.50000000000001,1.));
#1233=CARTESIAN_POINT('Origin',(-20.,7.50000000000001,1.));
#1234=CARTESIAN_POINT('',(-40.,15.,1.));
#1235=CARTESIAN_POINT('',(-30.,15.,1.));
#1236=CARTESIAN_POINT('',(-40.,3.75,1.));
#1237=CARTESIAN_POINT('Origin',(-20.,7.50000000000001,1.));
#1238=CARTESIAN_POINT('Origin',(-20.,7.50000000000001,1.));
#1239=CARTESIAN_POINT('',(0.,0.,1.));
#1240=CARTESIAN_POINT('',(-10.,0.,1.));
#1241=CARTESIAN_POINT('',(0.,11.25,1.));
#1242=CARTESIAN_POINT('Origin',(-20.,7.50000000000001,1.));
#1243=CARTESIAN_POINT('Origin',(-20.,7.50000000000001,1.));
#1244=CARTESIAN_POINT('',(-10.,0.,1.));
#1245=CARTESIAN_POINT('',(0.,11.25,1.));
#1246=CARTESIAN_POINT('',(-30.,15.,1.));
#1247=CARTESIAN_POINT('',(-40.,3.75,1.));
#1248=CARTESIAN_POINT('Origin',(-20.,7.50000000000001,1.));
#1249=CARTESIAN_POINT('',(-40.,0.,1.));
#1250=CARTESIAN_POINT('',(-40.,3.75,1.));
#1251=CARTESIAN_POINT('',(-10.,0.,1.));
#1252=CARTESIAN_POINT('Origin',(-20.,7.50000000000001,1.));
#1253=CARTESIAN_POINT('Origin',(0.,0.,0.));
#1254=CARTESIAN_POINT('',(-1.293,0.,0.));
#1255=CARTESIAN_POINT('',(-38.707,0.,0.));
#1256=CARTESIAN_POINT('',(-40.,0.,0.));
#1257=CARTESIAN_POINT('',(0.,0.,0.));
#1258=CARTESIAN_POINT('Origin',(-40.,0.,0.));
#1259=CARTESIAN_POINT('',(-40.,1.293,0.));
#1260=CARTESIAN_POINT('',(-40.,13.707,0.));
#1261=CARTESIAN_POINT('',(-40.,15.,0.));
#1262=CARTESIAN_POINT('Origin',(-5.04654650204737E-31,15.,0.));
#1263=CARTESIAN_POINT('',(0.,13.707,0.));
#1264=CARTESIAN_POINT('',(0.,1.293,0.));
#1265=CARTESIAN_POINT('',(-5.04654650204737E-31,15.,0.));
#1266=CARTESIAN_POINT('Origin',(-40.,15.,0.));
#1267=CARTESIAN_POINT('',(-38.707,15.,0.));
#1268=CARTESIAN_POINT('',(-1.293,15.,0.));
#1269=CARTESIAN_POINT('Origin',(1.,-0.999999999999996,0.));
#1270=CARTESIAN_POINT('Origin',(-41.,-1.00000000000001,0.));
#1271=UNCERTAINTY_MEASURE_WITH_UNIT(LENGTH_MEASURE(0.01),#1275,
'DISTANCE_ACCURACY_VALUE',
'Maximum model space distance between geometric entities at asserted c
onnectivities');
#1272=UNCERTAINTY_MEASURE_WITH_UNIT(LENGTH_MEASURE(0.01),#1275,
'DISTANCE_ACCURACY_VALUE',
'Maximum model space distance between geometric entities at asserted c
onnectivities');
#1273=(
GEOMETRIC_REPRESENTATION_CONTEXT(3)
GLOBAL_UNCERTAINTY_ASSIGNED_CONTEXT((#1271))
GLOBAL_UNIT_ASSIGNED_CONTEXT((#1275,#1277,#1278))
REPRESENTATION_CONTEXT('','3D')
);
#1274=(
GEOMETRIC_REPRESENTATION_CONTEXT(3)
GLOBAL_UNCERTAINTY_ASSIGNED_CONTEXT((#1272))
GLOBAL_UNIT_ASSIGNED_CONTEXT((#1275,#1277,#1278))
REPRESENTATION_CONTEXT('','3D')
);
#1275=(
LENGTH_UNIT()
NAMED_UNIT(*)
SI_UNIT(.MILLI.,.METRE.)
);
#1276=(
LENGTH_UNIT()
NAMED_UNIT(*)
SI_UNIT(.CENTI.,.METRE.)
);
#1277=(
NAMED_UNIT(*)
PLANE_ANGLE_UNIT()
SI_UNIT($,.RADIAN.)
);
#1278=(
NAMED_UNIT(*)
SI_UNIT($,.STERADIAN.)
SOLID_ANGLE_UNIT()
);
#1279=SHAPE_DEFINITION_REPRESENTATION(#1280,#1281);
#1280=PRODUCT_DEFINITION_SHAPE('',$,#1283);
#1281=SHAPE_REPRESENTATION('',(#747),#1273);
#1282=PRODUCT_DEFINITION_CONTEXT('part definition',#1287,'design');
#1283=PRODUCT_DEFINITION('Bottom part of case','Bottom part of case',#1284,
#1282);
#1284=PRODUCT_DEFINITION_FORMATION('',$,#1289);
#1285=PRODUCT_RELATED_PRODUCT_CATEGORY('Bottom part of case',
'Bottom part of case',(#1289));
#1286=APPLICATION_PROTOCOL_DEFINITION('international standard',
'automotive_design',2009,#1287);
#1287=APPLICATION_CONTEXT(
'Core Data for Automotive Mechanical Design Process');
#1288=PRODUCT_CONTEXT('part definition',#1287,'mechanical');
#1289=PRODUCT('Bottom part of case','Bottom part of case',$,(#1288));
#1290=PRESENTATION_STYLE_ASSIGNMENT((#1291));
#1291=SURFACE_STYLE_USAGE(.BOTH.,#1294);
#1292=SURFACE_STYLE_RENDERING_WITH_PROPERTIES($,#1298,(#1293));
#1293=SURFACE_STYLE_TRANSPARENT(0.);
#1294=SURFACE_SIDE_STYLE('',(#1295,#1292));
#1295=SURFACE_STYLE_FILL_AREA(#1296);
#1296=FILL_AREA_STYLE('',(#1297));
#1297=FILL_AREA_STYLE_COLOUR('',#1298);
#1298=COLOUR_RGB('',0.749019607843137,0.749019607843137,0.749019607843137);
ENDSEC;
END-ISO-10303-21;
